<svg xmlns="http://www.w3.org/2000/svg" width="294.49" height="294.5" viewBox="0 0 294.49 294.5">
  <g>
    <path fill="none" stroke="rgb(246,193,66)" stroke-linecap="round" stroke-linejoin="round" stroke-width="11.5" d="M149.7215733 167.75s-14.51413369.40586939-18.5-7.5c-3.9858663-7.90586939 10-24.5 18.5-26.5s43 19.5 43 31-31.5 35.5-48 35.5-49-31-49-47 18-26.5 35.5-36 36.5-15.5 47.5-15.5 27.23653431 13.0572437 36.5 41c9.2634657 27.9427563 7 38 3.5 46s-19.70135476 17.4987199-51 28.5c-31.29864523 11.0012801-59.4698676 11.53409567-75.5-9.5-9.0597437-11.8878317-18.11398193-36.98937659-18.11398193-57.99175148C74.10759137 107.75 140.2215733 78.25 151.7215733 76.75"/>
    <path fill="none" stroke="rgb(246,193,66)" stroke-linecap="round" stroke-linejoin="round" stroke-width="11.5" d="M70.2215733 84.25s-13-8.5-18.5-15-10-16.5-10-16.5"/>
    <path fill="none" stroke="rgb(246,193,66)" stroke-linecap="round" stroke-linejoin="round" stroke-width="11.5" d="M44.69314657 154.70758566s-9.10748978-.55102633-20.54449153.65105142c-11.43700175 1.20207776-18.24186224 3.4255601-18.24186224 3.4255601"/>
    <path fill="none" stroke="rgb(246,193,66)" stroke-linecap="round" stroke-linejoin="round" stroke-width="11.5" d="M70.2215733 230.25s-4.5 8-11.5 14-17.5 11-17.5 11"/>
    <path fill="none" stroke="rgb(246,193,66)" stroke-linecap="round" stroke-linejoin="round" stroke-width="11.5" d="M147.7215733 247.25s2 7.2967033 2 16.87362637c0 9.57692308-1 24.62637363-1 24.62637363"/>
    <path fill="none" stroke="rgb(246,193,66)" stroke-linecap="round" stroke-linejoin="round" stroke-width="11.5" d="M220.7215733 221.75s6.5 10 13.5 17 17.5 13 17.5 13"/>
    <path fill="none" stroke="rgb(246,193,66)" stroke-linecap="round" stroke-linejoin="round" stroke-width="11.5" d="M246.77272829 147.28511353s10.04539698-.29999906 21.51738354.50220067c11.47198656.80219974 20.31055 3.42513632 20.31055 3.42513632"/>
    <path fill="none" stroke="rgb(246,193,66)" stroke-linecap="round" stroke-linejoin="round" stroke-width="11.5" d="M215.2215733 81.25s6.0873016-8.73015873 13.57936509-15.27777778S244.7215733 53.75 244.7215733 53.75"/>
    <path fill="none" stroke="rgb(246,193,66)" stroke-linecap="round" stroke-linejoin="round" stroke-width="11.5" d="M141.7215733 49.75v-22.5c0-10.5-2.5-21.5-2.5-21.5"/>
  </g>
</svg>
